<svg width="398" height="144" viewBox="0 0 398 144" fill="none" xmlns="http://www.w3.org/2000/svg">
<path d="M199.012 1.06225e-06C187.037 -0.00214812 175.33 3.25698 165.372 9.36522C155.414 15.4735 147.652 24.1564 143.068 34.3161C138.484 44.4757 137.283 55.6556 139.618 66.4419C141.953 77.2282 147.718 87.1364 156.185 94.9135C164.652 102.691 175.439 107.987 187.184 110.133C198.929 112.28 211.103 111.179 222.166 106.971C233.23 102.763 242.686 95.6366 249.339 86.4928C255.992 77.349 259.543 66.5986 259.543 55.6013C259.545 48.3001 257.98 41.0702 254.939 34.3244C251.898 27.5786 247.439 21.4491 241.818 16.2859C236.197 11.1227 229.524 7.02695 222.179 4.23259C214.834 1.43823 206.962 9.2277e-07 199.012 1.06225e-06V1.06225e-06ZM199.012 79.3217C193.909 79.3239 188.921 77.9362 184.677 75.3341C180.434 72.7321 177.126 69.0327 175.172 64.7039C173.218 60.375 172.707 55.6113 173.701 51.0153C174.696 46.4192 177.153 42.1975 180.761 38.884C184.369 35.5706 188.966 33.3143 193.971 32.4006C198.975 31.487 204.162 31.957 208.876 33.7512C213.59 35.5455 217.618 38.5833 220.451 42.4804C223.285 46.3775 224.796 50.9588 224.793 55.6447C224.778 61.9158 222.055 67.9254 217.222 72.3556C212.389 76.7859 205.84 79.2754 199.012 79.2783V79.3217Z" fill="url(#paint0_linear)"/>
<path d="M69.7972 0.0191504C57.4606 0.0118039 45.417 3.45642 35.2842 9.89033C33.5335 6.37492 30.5176 3.51445 26.7396 1.78577C22.9615 0.0570935 18.6495 -0.435303 14.5225 0.390675C10.3955 1.21665 6.70279 3.31106 4.06012 6.32478C1.41745 9.33849 -0.0155128 13.0894 0.000126672 16.9521V125.134C0.000126745 129.625 1.95134 133.932 5.42451 137.107C8.89769 140.283 13.6083 142.067 18.5201 142.067C23.432 142.067 28.1426 140.283 31.6158 137.107C35.0889 133.932 37.0401 129.625 37.0401 125.134V102.192C44.9757 106.851 53.9898 109.755 63.367 110.673C72.7442 111.592 82.2265 110.499 91.0614 107.483C99.8963 104.466 107.841 99.6083 114.264 93.2948C120.687 86.9814 125.413 79.3861 128.066 71.1116C130.719 62.8371 131.226 54.1111 129.547 45.6262C127.868 37.1413 124.049 29.1309 118.394 22.2307C112.738 15.3305 105.401 9.73043 96.9659 5.87486C88.5304 2.01929 79.2281 0.0143657 69.7972 0.0191504V0.0191504ZM69.7972 79.2058C64.6813 79.2058 59.6803 77.8186 55.4267 75.2197C51.1732 72.6208 47.8581 68.9269 45.9009 64.6052C43.9437 60.2836 43.4322 55.5283 44.4311 50.9408C45.43 46.3534 47.8945 42.1398 51.5128 38.8331C55.1311 35.5264 59.7408 33.275 64.7587 32.3638C69.7766 31.4526 74.9773 31.9224 79.7031 33.7139C84.4289 35.5054 88.4675 38.538 91.3081 42.4283C94.1486 46.3185 95.6635 50.8916 95.6611 55.5691C95.6486 61.8323 92.9177 67.8349 88.0683 72.2585C83.2189 76.6822 76.6474 79.1653 69.7972 79.1624V79.2058Z" fill="url(#paint1_linear)"/>
<path d="M337.233 1.36234C324.9 1.34955 312.858 4.79553 302.732 11.2356C300.961 7.7487 297.943 4.91808 294.176 3.21079C290.409 1.5035 286.118 1.02154 282.012 1.84447C277.905 2.6674 274.228 4.74601 271.586 7.73738C268.945 10.7287 267.498 14.4541 267.484 18.2988V126.493C267.484 130.985 269.435 135.292 272.908 138.469C276.381 141.645 281.092 143.429 286.004 143.429C290.916 143.429 295.626 141.645 299.099 138.469C302.573 135.292 304.524 130.985 304.524 126.493V103.556C312.459 108.216 321.473 111.121 330.851 112.04C340.228 112.958 349.71 111.866 358.545 108.849C367.38 105.831 375.324 100.972 381.748 94.6577C388.171 88.343 392.897 80.746 395.55 72.4698C398.202 64.1935 398.71 55.4658 397.031 46.9791C395.352 38.4923 391.533 30.4802 385.877 23.5786C380.222 16.6769 372.885 11.0757 364.45 7.21929C356.014 3.36291 346.712 1.35755 337.281 1.36234H337.233ZM337.233 80.5657C332.118 80.5657 327.117 79.1785 322.864 76.5795C318.611 73.9805 315.296 70.2865 313.338 65.9646C311.381 61.6427 310.868 56.8869 311.866 52.2988C312.864 47.7107 315.328 43.4962 318.945 40.1883C322.562 36.8805 327.17 34.6278 332.188 33.7151C337.205 32.8025 342.405 33.2709 347.131 35.0611C351.857 36.8513 355.897 39.8829 358.739 43.7725C361.581 47.6622 363.097 52.2352 363.097 56.9132C363.085 63.1787 360.354 69.1836 355.505 73.61C350.656 78.0363 344.085 80.5223 337.233 80.5223V80.5657Z" fill="url(#paint2_linear)"/>
<defs>
<linearGradient id="paint0_linear" x1="146.327" y1="111.203" x2="241.742" y2="-8.68858" gradientUnits="userSpaceOnUse">
<stop stop-color="#4BDCE2"/>
<stop offset="0.836309" stop-color="#74E3E7"/>
</linearGradient>
<linearGradient id="paint1_linear" x1="8.48356" y1="142.067" x2="133.36" y2="9.68201" gradientUnits="userSpaceOnUse">
<stop stop-color="#4BDCE2"/>
<stop offset="0.836309" stop-color="#74E3E7"/>
</linearGradient>
<linearGradient id="paint2_linear" x1="275.967" y1="143.429" x2="400.844" y2="11.0443" gradientUnits="userSpaceOnUse">
<stop stop-color="#4BDCE2"/>
<stop offset="0.836309" stop-color="#74E3E7"/>
</linearGradient>
</defs>
</svg>
